<svg width="31" height="31" viewBox="0 0 31 31" fill="none" xmlns="http://www.w3.org/2000/svg">
<path d="M12.7603 18.4433C13.1685 19.667 14.4367 20.3404 15.6035 19.9512L17.9845 19.1571C18.9996 18.8186 19.537 17.6801 19.1826 16.6176C18.7966 15.4603 18.1578 15.2201 17.3198 15.2044L13.0539 15.1513C12.2159 15.1356 11.5771 14.8954 11.1911 13.7381C10.8367 12.6756 11.3741 11.5371 12.3892 11.1986L14.7702 10.4045C15.9371 10.0153 17.2052 10.6887 17.6134 11.9124" stroke="#FDE047" stroke-width="1.5" stroke-linecap="round" stroke-linejoin="round"/>
<path d="M13.2812 9.48838L17.0778 20.872" stroke="#FDE047" stroke-width="1.5" stroke-linecap="round" stroke-linejoin="round"/>
<path d="M18.3433 24.6665C23.5824 22.9192 26.4131 17.2555 24.6658 12.0164C22.9184 6.7772 17.2548 3.94652 12.0156 5.69385C6.77647 7.44118 3.94579 13.1048 5.69311 18.344C7.44044 23.5831 13.1041 26.4138 18.3433 24.6665Z" stroke="#FDE047" stroke-width="1.5" stroke-linecap="round" stroke-linejoin="round"/>
</svg>
