<svg width="36" height="32" viewBox="0 0 36 32" fill="none" xmlns="http://www.w3.org/2000/svg">
<path d="M42.3035 -8.60695C41.3687 -8.60695 40.6069 -9.36865 40.6069 -10.3035C40.6069 -11.2383 41.3687 -12 42.3035 -12C43.2383 -12 44 -11.2383 44 -10.3035C44 -9.36288 43.2383 -8.60695 42.3035 -8.60695ZM44 -0.153181C44 -1.088 43.2383 -1.8497 42.3035 -1.8497C41.3687 -1.8497 40.6069 -1.088 40.6069 -0.153181C40.6069 0.781639 41.3687 1.54335 42.3035 1.54335C43.2383 1.54335 44 0.78741 44 -0.153181ZM44 9.99712C44 9.0623 43.2383 8.30059 42.3035 8.30059C41.3687 8.30059 40.6069 9.0623 40.6069 9.99712C40.6069 10.9319 41.3687 11.6936 42.3035 11.6936C43.2383 11.6994 44 10.9377 44 9.99712ZM44 20.1532C44 19.2184 43.2383 18.4567 42.3035 18.4567C41.3687 18.4567 40.6069 19.2184 40.6069 20.1532C40.6069 21.088 41.3687 21.8497 42.3035 21.8497C43.2383 21.8497 44 21.088 44 20.1532ZM44 30.3035C44 29.3687 43.2383 28.6069 42.3035 28.6069C41.3687 28.6069 40.6069 29.3687 40.6069 30.3035C40.6069 31.2383 41.3687 32 42.3035 32C43.2383 32 44 31.2383 44 30.3035ZM33.8497 -10.3035C33.8497 -11.2383 33.088 -12 32.1532 -12C31.2183 -12 30.4566 -11.2383 30.4566 -10.3035C30.4566 -9.36865 31.2183 -8.60695 32.1532 -8.60695C33.088 -8.60695 33.8497 -9.36288 33.8497 -10.3035ZM33.8497 -0.153181C33.8497 -1.088 33.088 -1.8497 32.1532 -1.8497C31.2183 -1.8497 30.4566 -1.088 30.4566 -0.153181C30.4566 0.781639 31.2183 1.54335 32.1532 1.54335C33.088 1.54335 33.8497 0.78741 33.8497 -0.153181ZM33.8497 9.99712C33.8497 9.0623 33.088 8.30059 32.1532 8.30059C31.2183 8.30059 30.4566 9.0623 30.4566 9.99712C30.4566 10.9319 31.2183 11.6936 32.1532 11.6936C33.088 11.6994 33.8497 10.9377 33.8497 9.99712ZM33.8497 20.1532C33.8497 19.2184 33.088 18.4567 32.1532 18.4567C31.2183 18.4567 30.4566 19.2184 30.4566 20.1532C30.4566 21.088 31.2183 21.8497 32.1532 21.8497C33.088 21.8497 33.8497 21.088 33.8497 20.1532ZM33.8497 30.3035C33.8497 29.3687 33.088 28.6069 32.1532 28.6069C31.2183 28.6069 30.4566 29.3687 30.4566 30.3035C30.4566 31.2383 31.2183 32 32.1532 32C33.088 32 33.8497 31.2383 33.8497 30.3035ZM23.6936 -10.3035C23.6936 -11.2383 22.9319 -12 21.9971 -12C21.0623 -12 20.3006 -11.2383 20.3006 -10.3035C20.3006 -9.36865 21.0623 -8.60695 21.9971 -8.60695C22.9377 -8.60695 23.6936 -9.36288 23.6936 -10.3035ZM23.6936 -0.153181C23.6936 -1.088 22.9319 -1.8497 21.9971 -1.8497C21.0623 -1.8497 20.3006 -1.088 20.3006 -0.153181C20.3006 0.781639 21.0623 1.54335 21.9971 1.54335C22.9377 1.54335 23.6936 0.78741 23.6936 -0.153181ZM23.6936 9.99712C23.6936 9.0623 22.9319 8.30059 21.9971 8.30059C21.0623 8.30059 20.3006 9.0623 20.3006 9.99712C20.3006 10.9319 21.0623 11.6936 21.9971 11.6936C22.9377 11.6994 23.6936 10.9377 23.6936 9.99712ZM23.6936 20.1532C23.6936 19.2184 22.9319 18.4567 21.9971 18.4567C21.0623 18.4567 20.3006 19.2184 20.3006 20.1532C20.3006 21.088 21.0623 21.8497 21.9971 21.8497C22.9377 21.8497 23.6936 21.088 23.6936 20.1532ZM23.6936 30.3035C23.6936 29.3687 22.9319 28.6069 21.9971 28.6069C21.0623 28.6069 20.3006 29.3687 20.3006 30.3035C20.3006 31.2383 21.0623 32 21.9971 32C22.9377 32 23.6936 31.2383 23.6936 30.3035ZM13.5433 -10.3035C13.5433 -11.2383 12.7816 -12 11.8468 -12C10.912 -12 10.1503 -11.2383 10.1503 -10.3035C10.1503 -9.36865 10.912 -8.60695 11.8468 -8.60695C12.7874 -8.60695 13.5433 -9.36288 13.5433 -10.3035ZM13.5433 -0.153181C13.5433 -1.088 12.7816 -1.8497 11.8468 -1.8497C10.912 -1.8497 10.1503 -1.088 10.1503 -0.153181C10.1503 0.781639 10.912 1.54335 11.8468 1.54335C12.7874 1.54335 13.5433 0.78741 13.5433 -0.153181ZM13.5433 9.99712C13.5433 9.0623 12.7816 8.30059 11.8468 8.30059C10.912 8.30059 10.1503 9.0623 10.1503 9.99712C10.1503 10.9319 10.912 11.6936 11.8468 11.6936C12.7874 11.6994 13.5433 10.9377 13.5433 9.99712ZM13.5433 20.1532C13.5433 19.2184 12.7816 18.4567 11.8468 18.4567C10.912 18.4567 10.1503 19.2184 10.1503 20.1532C10.1503 21.088 10.912 21.8497 11.8468 21.8497C12.7874 21.8497 13.5433 21.088 13.5433 20.1532ZM13.5433 30.3035C13.5433 29.3687 12.7816 28.6069 11.8468 28.6069C10.912 28.6069 10.1503 29.3687 10.1503 30.3035C10.1503 31.2383 10.912 32 11.8468 32C12.7874 32 13.5433 31.2383 13.5433 30.3035ZM3.39305 -10.3035C3.39305 -11.2383 2.63135 -12 1.69653 -12C0.761706 -12 0 -11.2383 0 -10.3035C0 -9.36865 0.761706 -8.60695 1.69653 -8.60695C2.63135 -8.60695 3.39305 -9.36288 3.39305 -10.3035ZM3.39305 -0.153181C3.39305 -1.088 2.63135 -1.8497 1.69653 -1.8497C0.761706 -1.8497 0 -1.088 0 -0.153181C0 0.781639 0.761706 1.54335 1.69653 1.54335C2.63135 1.54335 3.39305 0.78741 3.39305 -0.153181ZM3.39305 9.99712C3.39305 9.0623 2.63135 8.30059 1.69653 8.30059C0.761706 8.30059 0 9.0623 0 9.99712C0 10.9319 0.761706 11.6936 1.69653 11.6936C2.63135 11.6936 3.39305 10.9377 3.39305 9.99712ZM3.39305 20.1532C3.39305 19.2184 2.63135 18.4567 1.69653 18.4567C0.761706 18.4567 0 19.2184 0 20.1532C0 21.088 0.761706 21.8497 1.69653 21.8497C2.63135 21.8497 3.39305 21.088 3.39305 20.1532ZM3.39305 30.3035C3.39305 29.3687 2.63135 28.6069 1.69653 28.6069C0.761706 28.6069 0 29.3687 0 30.3035C0 31.2383 0.761706 32 1.69653 32C2.63135 32 3.39305 31.2383 3.39305 30.3035Z" fill="#2DBAF4"/>
</svg>
