<svg width="15" height="15" viewBox="0 0 15 15" fill="none" xmlns="http://www.w3.org/2000/svg">
<path d="M6.43043 9.04692C6.65044 9.60473 7.25591 9.8856 7.78778 9.67582L8.87314 9.24774C9.33582 9.06525 9.55682 8.52337 9.3658 8.03907C9.15773 7.51152 8.85522 7.41597 8.46585 7.42963L6.48445 7.51157C6.09509 7.52523 5.79257 7.42969 5.5845 6.90214C5.39348 6.41784 5.61448 5.87596 6.07717 5.69347L7.16253 5.26539C7.6944 5.05561 8.29986 5.33647 8.51987 5.89429" stroke="#FDE047" stroke-linecap="round" stroke-linejoin="round"/>
<path d="M6.44922 4.87735L8.49583 10.0663" stroke="#FDE047" stroke-linecap="round" stroke-linejoin="round"/>
<path d="M9.17657 11.796C11.5647 10.8541 12.7371 8.15449 11.7952 5.76633C10.8533 3.37817 8.15371 2.20577 5.76555 3.14769C3.37739 4.08962 2.20499 6.78919 3.14692 9.17735C4.08884 11.5655 6.78841 12.7379 9.17657 11.796Z" stroke="#FDE047" stroke-linecap="round" stroke-linejoin="round"/>
</svg>
