<svg width="14" height="14" viewBox="0 0 14 14" fill="none" xmlns="http://www.w3.org/2000/svg">
<path d="M5.79154 7.99126C6.03567 8.44953 6.58417 8.63163 7.02111 8.39886L7.91277 7.92387C8.29288 7.72138 8.42973 7.23347 8.21778 6.8356C7.9869 6.40221 7.71725 6.34975 7.38362 6.39978L5.68706 6.66508C5.35343 6.71512 5.08378 6.66266 4.85291 6.22927C4.64096 5.8314 4.77781 5.34349 5.15792 5.141L6.04958 4.666C6.48652 4.43324 7.03502 4.61534 7.27914 5.0736" stroke="#FDE047" stroke-width="0.5" stroke-linecap="round" stroke-linejoin="round"/>
<path d="M5.39844 4.40234L7.66933 8.66524" stroke="#FDE047" stroke-width="0.5" stroke-linecap="round" stroke-linejoin="round"/>
<path d="M8.42708 10.0862C10.389 9.04105 11.1322 6.60332 10.0871 4.64138C9.04194 2.67943 6.60421 1.93622 4.64226 2.98137C2.68032 4.02652 1.9371 6.46425 2.98225 8.4262C4.0274 10.3881 6.46513 11.1314 8.42708 10.0862Z" stroke="#FDE047" stroke-width="0.5" stroke-linecap="round" stroke-linejoin="round"/>
</svg>
