<svg width="456" height="44" viewBox="0 0 456 44" fill="none" xmlns="http://www.w3.org/2000/svg">
<mask id="mask0_1_748" style="mask-type:alpha" maskUnits="userSpaceOnUse" x="136" y="12" width="20" height="20">
<path fill-rule="evenodd" clip-rule="evenodd" d="M155.767 20.1818H146.233V24.0455H151.721C151.209 26.5 149.07 27.9091 146.233 27.9091C142.884 27.9091 140.186 25.2727 140.186 22C140.186 18.7273 142.884 16.0909 146.233 16.0909C147.674 16.0909 148.977 16.5909 150 17.4091L152.977 14.5C151.163 12.9545 148.837 12 146.233 12C140.558 12 136 16.4545 136 22C136 27.5455 140.558 32 146.233 32C151.349 32 156 28.3636 156 22C156 21.4091 155.907 20.7727 155.767 20.1818Z" fill="white"/>
</mask>
<g mask="url(#mask0_1_748)">
<path d="M135.07 27.9091V16.0909L142.977 22L135.07 27.9091Z" fill="#FBBC05"/>
</g>
<mask id="mask1_1_748" style="mask-type:alpha" maskUnits="userSpaceOnUse" x="136" y="12" width="20" height="20">
<path fill-rule="evenodd" clip-rule="evenodd" d="M155.767 20.1818H146.233V24.0455H151.721C151.209 26.5 149.07 27.9091 146.233 27.9091C142.884 27.9091 140.186 25.2727 140.186 22C140.186 18.7273 142.884 16.0909 146.233 16.0909C147.674 16.0909 148.977 16.5909 150 17.4091L152.977 14.5C151.163 12.9545 148.837 12 146.233 12C140.558 12 136 16.4545 136 22C136 27.5455 140.558 32 146.233 32C151.349 32 156 28.3636 156 22C156 21.4091 155.907 20.7727 155.767 20.1818Z" fill="white"/>
</mask>
<g mask="url(#mask1_1_748)">
<path d="M135.07 16.0909L142.977 22L146.233 19.2272L157.395 17.4545V11.0909H135.07V16.0909Z" fill="#EA4335"/>
</g>
<mask id="mask2_1_748" style="mask-type:alpha" maskUnits="userSpaceOnUse" x="136" y="12" width="20" height="20">
<path fill-rule="evenodd" clip-rule="evenodd" d="M155.767 20.1818H146.233V24.0455H151.721C151.209 26.5 149.07 27.9091 146.233 27.9091C142.884 27.9091 140.186 25.2727 140.186 22C140.186 18.7273 142.884 16.0909 146.233 16.0909C147.674 16.0909 148.977 16.5909 150 17.4091L152.977 14.5C151.163 12.9545 148.837 12 146.233 12C140.558 12 136 16.4545 136 22C136 27.5455 140.558 32 146.233 32C151.349 32 156 28.3636 156 22C156 21.4091 155.907 20.7727 155.767 20.1818Z" fill="white"/>
</mask>
<g mask="url(#mask2_1_748)">
<path d="M135.07 27.9091L149.023 17.4545L152.698 17.9091L157.395 11.0909V32.9091H135.07V27.9091Z" fill="#34A853"/>
</g>
<mask id="mask3_1_748" style="mask-type:alpha" maskUnits="userSpaceOnUse" x="136" y="12" width="20" height="20">
<path fill-rule="evenodd" clip-rule="evenodd" d="M155.767 20.1818H146.233V24.0455H151.721C151.209 26.5 149.07 27.9091 146.233 27.9091C142.884 27.9091 140.186 25.2727 140.186 22C140.186 18.7273 142.884 16.0909 146.233 16.0909C147.674 16.0909 148.977 16.5909 150 17.4091L152.977 14.5C151.163 12.9545 148.837 12 146.233 12C140.558 12 136 16.4545 136 22C136 27.5455 140.558 32 146.233 32C151.349 32 156 28.3636 156 22C156 21.4091 155.907 20.7727 155.767 20.1818Z" fill="white"/>
</mask>
<g mask="url(#mask3_1_748)">
<path d="M157.395 32.9091L142.976 22L141.116 20.6363L157.395 16.0909V32.9091Z" fill="#4285F4"/>
</g>
<path d="M175.984 18.9205C175.924 18.3826 175.674 17.9659 175.234 17.6705C174.795 17.3712 174.242 17.2216 173.575 17.2216C173.098 17.2216 172.685 17.2973 172.337 17.4489C171.988 17.5966 171.717 17.8011 171.524 18.0625C171.335 18.3201 171.24 18.6136 171.24 18.9432C171.24 19.2197 171.304 19.4583 171.433 19.6591C171.566 19.8598 171.738 20.0284 171.95 20.1648C172.166 20.2973 172.397 20.4091 172.643 20.5C172.89 20.5871 173.126 20.6591 173.354 20.7159L174.49 21.0114C174.861 21.1023 175.242 21.2254 175.632 21.3807C176.022 21.536 176.384 21.7405 176.717 21.9943C177.051 22.2481 177.32 22.5625 177.524 22.9375C177.732 23.3125 177.837 23.7614 177.837 24.2841C177.837 24.9432 177.666 25.5284 177.325 26.0398C176.988 26.5511 176.498 26.9545 175.854 27.25C175.214 27.5455 174.439 27.6932 173.53 27.6932C172.659 27.6932 171.905 27.5549 171.268 27.2784C170.632 27.0019 170.134 26.6098 169.774 26.1023C169.414 25.5909 169.215 24.9848 169.178 24.2841H170.939C170.973 24.7045 171.109 25.0549 171.348 25.3352C171.59 25.6117 171.899 25.8182 172.274 25.9545C172.653 26.0871 173.068 26.1534 173.518 26.1534C174.015 26.1534 174.456 26.0758 174.842 25.9205C175.232 25.7614 175.539 25.5417 175.763 25.2614C175.986 24.9773 176.098 24.6458 176.098 24.267C176.098 23.9223 176 23.6402 175.803 23.4205C175.609 23.2008 175.346 23.0189 175.013 22.875C174.683 22.7311 174.31 22.6042 173.893 22.4943L172.518 22.1193C171.587 21.8655 170.848 21.4924 170.303 21C169.761 20.5076 169.49 19.8561 169.49 19.0455C169.49 18.375 169.672 17.7898 170.036 17.2898C170.399 16.7898 170.892 16.4015 171.513 16.125C172.134 15.8447 172.835 15.7045 173.615 15.7045C174.403 15.7045 175.098 15.8428 175.7 16.1193C176.306 16.3958 176.784 16.7765 177.132 17.2614C177.481 17.7424 177.662 18.2955 177.678 18.9205H175.984ZM179.798 27.5V18.7727H181.497V27.5H179.798ZM180.656 17.4261C180.361 17.4261 180.107 17.3277 179.895 17.1307C179.687 16.9299 179.582 16.6913 179.582 16.4148C179.582 16.1345 179.687 15.8958 179.895 15.6989C180.107 15.4981 180.361 15.3977 180.656 15.3977C180.952 15.3977 181.204 15.4981 181.412 15.6989C181.624 15.8958 181.73 16.1345 181.73 16.4148C181.73 16.6913 181.624 16.9299 181.412 17.1307C181.204 17.3277 180.952 17.4261 180.656 17.4261ZM187.442 30.9545C186.749 30.9545 186.152 30.8636 185.652 30.6818C185.156 30.5 184.75 30.2595 184.436 29.9602C184.122 29.661 183.887 29.3333 183.732 28.9773L185.192 28.375C185.294 28.5417 185.43 28.7178 185.601 28.9034C185.775 29.0928 186.01 29.2538 186.305 29.3864C186.605 29.5189 186.989 29.5852 187.459 29.5852C188.103 29.5852 188.635 29.428 189.055 29.1136C189.476 28.803 189.686 28.3068 189.686 27.625V25.9091H189.578C189.476 26.0947 189.328 26.3011 189.135 26.5284C188.946 26.7557 188.684 26.9527 188.351 27.1193C188.018 27.286 187.584 27.3693 187.05 27.3693C186.36 27.3693 185.739 27.2083 185.186 26.8864C184.637 26.5606 184.201 26.0814 183.879 25.4489C183.561 24.8125 183.402 24.0303 183.402 23.1023C183.402 22.1742 183.559 21.3788 183.874 20.7159C184.192 20.053 184.627 19.5455 185.18 19.1932C185.733 18.8371 186.36 18.6591 187.061 18.6591C187.603 18.6591 188.04 18.75 188.374 18.9318C188.707 19.1098 188.966 19.3182 189.152 19.5568C189.341 19.7955 189.487 20.0057 189.589 20.1875H189.714V18.7727H191.379V27.6932C191.379 28.4432 191.205 29.0587 190.857 29.5398C190.508 30.0208 190.036 30.3769 189.442 30.608C188.851 30.839 188.184 30.9545 187.442 30.9545ZM187.425 25.9602C187.913 25.9602 188.326 25.8466 188.663 25.6193C189.004 25.3883 189.262 25.0587 189.436 24.6307C189.614 24.1989 189.703 23.6818 189.703 23.0795C189.703 22.4924 189.616 21.9754 189.442 21.5284C189.268 21.0814 189.012 20.733 188.675 20.483C188.338 20.2292 187.921 20.1023 187.425 20.1023C186.913 20.1023 186.487 20.2348 186.146 20.5C185.805 20.7614 185.548 21.1174 185.374 21.5682C185.203 22.0189 185.118 22.5227 185.118 23.0795C185.118 23.6515 185.205 24.1534 185.379 24.5852C185.554 25.017 185.811 25.3542 186.152 25.5966C186.497 25.839 186.921 25.9602 187.425 25.9602ZM195.357 22.3182V27.5H193.658V18.7727H195.288V20.1932H195.396C195.597 19.7311 195.911 19.3598 196.339 19.0795C196.771 18.7992 197.315 18.6591 197.97 18.6591C198.565 18.6591 199.086 18.7841 199.533 19.0341C199.98 19.2803 200.326 19.6477 200.572 20.1364C200.819 20.625 200.942 21.2292 200.942 21.9489V27.5H199.243V22.1534C199.243 21.5208 199.078 21.0265 198.749 20.6705C198.419 20.3106 197.966 20.1307 197.391 20.1307C196.997 20.1307 196.646 20.2159 196.339 20.3864C196.036 20.5568 195.796 20.8068 195.618 21.1364C195.444 21.4621 195.357 21.8561 195.357 22.3182ZM212.983 23.8807V18.7727H214.688V27.5H213.017V25.9886H212.926C212.725 26.4545 212.403 26.8428 211.96 27.1534C211.521 27.4602 210.973 27.6136 210.318 27.6136C209.758 27.6136 209.261 27.4905 208.83 27.2443C208.402 26.9943 208.064 26.625 207.818 26.1364C207.576 25.6477 207.455 25.0436 207.455 24.3239V18.7727H209.153V24.1193C209.153 24.714 209.318 25.1875 209.648 25.5398C209.977 25.892 210.405 26.0682 210.932 26.0682C211.25 26.0682 211.566 25.9886 211.881 25.8295C212.199 25.6705 212.462 25.4299 212.67 25.108C212.883 24.786 212.987 24.3769 212.983 23.8807ZM216.97 30.7727V18.7727H218.629V20.1875H218.771C218.87 20.0057 219.012 19.7955 219.197 19.5568C219.383 19.3182 219.641 19.1098 219.97 18.9318C220.3 18.75 220.735 18.6591 221.277 18.6591C221.982 18.6591 222.61 18.8371 223.163 19.1932C223.716 19.5492 224.15 20.0625 224.464 20.733C224.783 21.4034 224.942 22.2102 224.942 23.1534C224.942 24.0966 224.785 24.9053 224.47 25.5795C224.156 26.25 223.724 26.767 223.175 27.1307C222.625 27.4905 221.999 27.6705 221.294 27.6705C220.764 27.6705 220.33 27.5814 219.993 27.4034C219.66 27.2254 219.398 27.017 219.209 26.7784C219.019 26.5398 218.874 26.3277 218.771 26.142H218.669V30.7727H216.97ZM218.635 23.1364C218.635 23.75 218.724 24.2879 218.902 24.75C219.08 25.2121 219.338 25.5739 219.675 25.8352C220.012 26.0928 220.425 26.2216 220.913 26.2216C221.421 26.2216 221.845 26.0871 222.186 25.8182C222.527 25.5455 222.785 25.1761 222.959 24.7102C223.137 24.2443 223.226 23.7197 223.226 23.1364C223.226 22.5606 223.139 22.0436 222.964 21.5852C222.794 21.1269 222.536 20.7652 222.192 20.5C221.851 20.2348 221.425 20.1023 220.913 20.1023C220.421 20.1023 220.004 20.2292 219.663 20.483C219.326 20.7367 219.071 21.0909 218.896 21.5455C218.722 22 218.635 22.5303 218.635 23.1364ZM232.972 27.5L230.403 18.7727H232.159L233.869 25.1818H233.955L235.67 18.7727H237.426L239.131 25.1534H239.216L240.915 18.7727H242.67L240.108 27.5H238.375L236.602 21.1989H236.472L234.699 27.5H232.972ZM244.283 27.5V18.7727H245.982V27.5H244.283ZM245.141 17.4261C244.845 17.4261 244.591 17.3277 244.379 17.1307C244.171 16.9299 244.067 16.6913 244.067 16.4148C244.067 16.1345 244.171 15.8958 244.379 15.6989C244.591 15.4981 244.845 15.3977 245.141 15.3977C245.436 15.3977 245.688 15.4981 245.896 15.6989C246.108 15.8958 246.214 16.1345 246.214 16.4148C246.214 16.6913 246.108 16.9299 245.896 17.1307C245.688 17.3277 245.436 17.4261 245.141 17.4261ZM252.341 18.7727V20.1364H247.574V18.7727H252.341ZM248.852 16.6818H250.551V24.9375C250.551 25.267 250.6 25.5152 250.699 25.6818C250.797 25.8447 250.924 25.9564 251.08 26.017C251.239 26.0739 251.411 26.1023 251.597 26.1023C251.733 26.1023 251.852 26.0928 251.955 26.0739C252.057 26.0549 252.136 26.0398 252.193 26.0284L252.5 27.4318C252.402 27.4697 252.261 27.5076 252.08 27.5455C251.898 27.5871 251.67 27.6098 251.398 27.6136C250.951 27.6212 250.534 27.5417 250.148 27.375C249.761 27.2083 249.449 26.9508 249.21 26.6023C248.972 26.2538 248.852 25.8163 248.852 25.2898V16.6818ZM256.107 22.3182V27.5H254.408V15.8636H256.084V20.1932H256.192C256.396 19.7235 256.709 19.3504 257.129 19.0739C257.55 18.7973 258.099 18.6591 258.777 18.6591C259.375 18.6591 259.898 18.7822 260.345 19.0284C260.796 19.2746 261.144 19.642 261.391 20.1307C261.641 20.6155 261.766 21.2216 261.766 21.9489V27.5H260.067V22.1534C260.067 21.5133 259.902 21.017 259.572 20.6648C259.243 20.3087 258.785 20.1307 258.197 20.1307C257.796 20.1307 257.436 20.2159 257.118 20.3864C256.804 20.5568 256.555 20.8068 256.374 21.1364C256.196 21.4621 256.107 21.8561 256.107 22.3182ZM276.278 19.5398C276.169 19.1951 276.021 18.8864 275.835 18.6136C275.653 18.3371 275.436 18.1023 275.182 17.9091C274.928 17.7121 274.638 17.5625 274.312 17.4602C273.991 17.358 273.636 17.3068 273.25 17.3068C272.595 17.3068 272.004 17.4754 271.477 17.8125C270.951 18.1496 270.534 18.6439 270.227 19.2955C269.924 19.9432 269.773 20.7367 269.773 21.6761C269.773 22.6193 269.926 23.4167 270.233 24.0682C270.54 24.7197 270.96 25.214 271.494 25.5511C272.028 25.8883 272.636 26.0568 273.318 26.0568C273.951 26.0568 274.502 25.928 274.972 25.6705C275.445 25.4129 275.811 25.0492 276.068 24.5795C276.33 24.1061 276.46 23.5492 276.46 22.9091L276.915 22.9943H273.585V21.5455H278.159V22.8693C278.159 23.8466 277.951 24.6951 277.534 25.4148C277.121 26.1307 276.549 26.6837 275.818 27.0739C275.091 27.464 274.258 27.6591 273.318 27.6591C272.265 27.6591 271.341 27.4167 270.545 26.9318C269.754 26.447 269.136 25.7595 268.693 24.8693C268.25 23.9754 268.028 22.9148 268.028 21.6875C268.028 20.7595 268.157 19.9261 268.415 19.1875C268.672 18.4489 269.034 17.822 269.5 17.3068C269.97 16.7879 270.521 16.392 271.153 16.1193C271.79 15.8428 272.485 15.7045 273.239 15.7045C273.867 15.7045 274.453 15.7973 274.994 15.983C275.54 16.1686 276.025 16.4318 276.449 16.7727C276.877 17.1136 277.231 17.5189 277.511 17.9886C277.792 18.4545 277.981 18.9716 278.08 19.5398H276.278ZM283.928 27.6761C283.109 27.6761 282.395 27.4886 281.786 27.1136C281.176 26.7386 280.702 26.214 280.365 25.5398C280.028 24.8655 279.859 24.0777 279.859 23.1761C279.859 22.2708 280.028 21.4792 280.365 20.8011C280.702 20.1231 281.176 19.5966 281.786 19.2216C282.395 18.8466 283.109 18.6591 283.928 18.6591C284.746 18.6591 285.46 18.8466 286.07 19.2216C286.679 19.5966 287.153 20.1231 287.49 20.8011C287.827 21.4792 287.996 22.2708 287.996 23.1761C287.996 24.0777 287.827 24.8655 287.49 25.5398C287.153 26.214 286.679 26.7386 286.07 27.1136C285.46 27.4886 284.746 27.6761 283.928 27.6761ZM283.933 26.25C284.464 26.25 284.903 26.1098 285.251 25.8295C285.6 25.5492 285.857 25.1761 286.024 24.7102C286.195 24.2443 286.28 23.7311 286.28 23.1705C286.28 22.6136 286.195 22.1023 286.024 21.6364C285.857 21.1667 285.6 20.7898 285.251 20.5057C284.903 20.2216 284.464 20.0795 283.933 20.0795C283.399 20.0795 282.956 20.2216 282.604 20.5057C282.255 20.7898 281.996 21.1667 281.825 21.6364C281.659 22.1023 281.575 22.6136 281.575 23.1705C281.575 23.7311 281.659 24.2443 281.825 24.7102C281.996 25.1761 282.255 25.5492 282.604 25.8295C282.956 26.1098 283.399 26.25 283.933 26.25ZM293.568 27.6761C292.75 27.6761 292.036 27.4886 291.426 27.1136C290.816 26.7386 290.343 26.214 290.006 25.5398C289.669 24.8655 289.5 24.0777 289.5 23.1761C289.5 22.2708 289.669 21.4792 290.006 20.8011C290.343 20.1231 290.816 19.5966 291.426 19.2216C292.036 18.8466 292.75 18.6591 293.568 18.6591C294.386 18.6591 295.1 18.8466 295.71 19.2216C296.32 19.5966 296.794 20.1231 297.131 20.8011C297.468 21.4792 297.636 22.2708 297.636 23.1761C297.636 24.0777 297.468 24.8655 297.131 25.5398C296.794 26.214 296.32 26.7386 295.71 27.1136C295.1 27.4886 294.386 27.6761 293.568 27.6761ZM293.574 26.25C294.104 26.25 294.544 26.1098 294.892 25.8295C295.241 25.5492 295.498 25.1761 295.665 24.7102C295.835 24.2443 295.92 23.7311 295.92 23.1705C295.92 22.6136 295.835 22.1023 295.665 21.6364C295.498 21.1667 295.241 20.7898 294.892 20.5057C294.544 20.2216 294.104 20.0795 293.574 20.0795C293.04 20.0795 292.597 20.2216 292.244 20.5057C291.896 20.7898 291.636 21.1667 291.466 21.6364C291.299 22.1023 291.216 22.6136 291.216 23.1705C291.216 23.7311 291.299 24.2443 291.466 24.7102C291.636 25.1761 291.896 25.5492 292.244 25.8295C292.597 26.1098 293.04 26.25 293.574 26.25ZM303.192 30.9545C302.499 30.9545 301.902 30.8636 301.402 30.6818C300.906 30.5 300.5 30.2595 300.186 29.9602C299.872 29.661 299.637 29.3333 299.482 28.9773L300.942 28.375C301.044 28.5417 301.18 28.7178 301.351 28.9034C301.525 29.0928 301.76 29.2538 302.055 29.3864C302.355 29.5189 302.739 29.5852 303.209 29.5852C303.853 29.5852 304.385 29.428 304.805 29.1136C305.226 28.803 305.436 28.3068 305.436 27.625V25.9091H305.328C305.226 26.0947 305.078 26.3011 304.885 26.5284C304.696 26.7557 304.434 26.9527 304.101 27.1193C303.768 27.286 303.334 27.3693 302.8 27.3693C302.11 27.3693 301.489 27.2083 300.936 26.8864C300.387 26.5606 299.951 26.0814 299.629 25.4489C299.311 24.8125 299.152 24.0303 299.152 23.1023C299.152 22.1742 299.309 21.3788 299.624 20.7159C299.942 20.053 300.377 19.5455 300.93 19.1932C301.483 18.8371 302.11 18.6591 302.811 18.6591C303.353 18.6591 303.79 18.75 304.124 18.9318C304.457 19.1098 304.716 19.3182 304.902 19.5568C305.091 19.7955 305.237 20.0057 305.339 20.1875H305.464V18.7727H307.129V27.6932C307.129 28.4432 306.955 29.0587 306.607 29.5398C306.258 30.0208 305.786 30.3769 305.192 30.608C304.601 30.839 303.934 30.9545 303.192 30.9545ZM303.175 25.9602C303.663 25.9602 304.076 25.8466 304.413 25.6193C304.754 25.3883 305.012 25.0587 305.186 24.6307C305.364 24.1989 305.453 23.6818 305.453 23.0795C305.453 22.4924 305.366 21.9754 305.192 21.5284C305.018 21.0814 304.762 20.733 304.425 20.483C304.088 20.2292 303.671 20.1023 303.175 20.1023C302.663 20.1023 302.237 20.2348 301.896 20.5C301.555 20.7614 301.298 21.1174 301.124 21.5682C300.953 22.0189 300.868 22.5227 300.868 23.0795C300.868 23.6515 300.955 24.1534 301.129 24.5852C301.304 25.017 301.561 25.3542 301.902 25.5966C302.247 25.839 302.671 25.9602 303.175 25.9602ZM311.107 15.8636V27.5H309.408V15.8636H311.107ZM317.153 27.6761C316.294 27.6761 315.553 27.4924 314.932 27.125C314.314 26.7538 313.837 26.233 313.5 25.5625C313.167 24.8883 313 24.0985 313 23.1932C313 22.2992 313.167 21.5114 313.5 20.8295C313.837 20.1477 314.307 19.6155 314.909 19.233C315.515 18.8504 316.223 18.6591 317.034 18.6591C317.527 18.6591 318.004 18.7405 318.466 18.9034C318.928 19.0663 319.343 19.322 319.71 19.6705C320.078 20.0189 320.367 20.4716 320.58 21.0284C320.792 21.5814 320.898 22.2538 320.898 23.0455V23.6477H313.96V22.375H319.233C319.233 21.928 319.142 21.5322 318.96 21.1875C318.778 20.839 318.523 20.5644 318.193 20.3636C317.867 20.1629 317.485 20.0625 317.045 20.0625C316.568 20.0625 316.152 20.1799 315.795 20.4148C315.443 20.6458 315.17 20.9489 314.977 21.3239C314.788 21.6951 314.693 22.0985 314.693 22.5341V23.5284C314.693 24.1117 314.795 24.608 315 25.017C315.208 25.4261 315.498 25.7386 315.869 25.9545C316.241 26.1667 316.674 26.2727 317.17 26.2727C317.492 26.2727 317.786 26.2273 318.051 26.1364C318.316 26.0417 318.545 25.9015 318.739 25.7159C318.932 25.5303 319.08 25.3011 319.182 25.0284L320.79 25.3182C320.661 25.7917 320.43 26.2064 320.097 26.5625C319.767 26.9148 319.352 27.1894 318.852 27.3864C318.356 27.5795 317.79 27.6761 317.153 27.6761Z" fill="#23262F"/>
<rect x="0.5" y="0.5" width="455" height="43" rx="9.5" stroke="#E6E8EC"/>
</svg>
