<svg width="36" height="37" viewBox="0 0 36 37" fill="none" xmlns="http://www.w3.org/2000/svg">
<g clip-path="url(#clip0_1602_15940)">
<rect width="36" height="36" transform="translate(0 0.5)" fill="#008DD0"/>
<path d="M35.5784 1.97647V5.66788C35.5784 6.25034 35.1062 6.72256 34.5237 6.72256H6.22291V35.0233C6.22291 35.6058 5.7507 36.078 5.16823 36.078H1.47682C0.894353 36.078 0.422134 35.6058 0.422134 35.0233V4.43741C0.422134 2.4958 1.99615 0.921783 3.93776 0.921783H34.5237C35.1062 0.921783 35.5784 1.394 35.5784 1.97647ZM19.846 36.078H16.1546C15.5721 36.078 15.0999 35.6058 15.0999 35.0233V31.3319C15.0999 30.7495 15.5721 30.2772 16.1546 30.2772H19.846C20.4284 30.2772 20.9006 30.7495 20.9006 31.3319V35.0233C20.9006 35.6058 20.4284 36.078 19.846 36.078ZM34.5237 36.078H30.8323C30.2498 36.078 29.7776 35.6058 29.7776 35.0233V31.3319C29.7776 30.7495 30.2498 30.2772 30.8323 30.2772H34.5237C35.1062 30.2772 35.5784 30.7495 35.5784 31.3319V35.0233C35.5784 35.6058 35.1062 36.078 34.5237 36.078ZM27.1848 36.078H23.4934C22.9109 36.078 22.4387 35.6058 22.4387 35.0233V31.3319C22.4387 30.7495 22.9109 30.2772 23.4934 30.2772H27.1848C27.7673 30.2772 28.2395 30.7495 28.2395 31.3319V35.0233C28.2395 35.6058 27.7673 36.078 27.1848 36.078Z" fill="black"/>
<path d="M12.5072 36.0781H8.81576C8.23329 36.0781 7.76107 35.6059 7.76107 35.0234V31.332C7.76107 30.7495 8.23329 30.2773 8.81576 30.2773H12.5072C13.0896 30.2773 13.5619 30.7495 13.5619 31.332V35.0234C13.5619 35.6059 13.0896 36.0781 12.5072 36.0781ZM34.5238 28.7392H30.8324C30.2499 28.7392 29.7777 28.267 29.7777 27.6845V23.9931C29.7777 23.4107 30.2499 22.9384 30.8324 22.9384H34.5238C35.1062 22.9384 35.5784 23.4107 35.5784 23.9931V27.6845C35.5784 28.267 35.1062 28.7392 34.5238 28.7392ZM34.5238 14.0615H30.8324C30.2499 14.0615 29.7777 13.5893 29.7777 13.0068V9.3154C29.7777 8.73293 30.2499 8.26071 30.8324 8.26071H34.5238C35.1062 8.26071 35.5784 8.73293 35.5784 9.3154V13.0068C35.5784 13.5893 35.1062 14.0615 34.5238 14.0615ZM34.5238 21.4004H30.8324C30.2499 21.4004 29.7777 20.9281 29.7777 20.3457V16.6543C29.7777 16.0718 30.2499 15.5996 30.8324 15.5996H34.5238C35.1062 15.5996 35.5784 16.0718 35.5784 16.6543V20.3457C35.5784 20.9281 35.1062 21.4004 34.5238 21.4004Z" fill="black"/>
</g>
<defs>
<clipPath id="clip0_1602_15940">
<rect width="36" height="36" fill="white" transform="translate(0 0.5)"/>
</clipPath>
</defs>
</svg>
